<?xml version="1.0"?>
<svg xmlns="http://www.w3.org/2000/svg" xmlns:xlink="http://www.w3.org/1999/xlink" version="1.1" id="Capa_1" x="0px" y="0px" viewBox="0 0 512 512" style="enable-background:new 0 0 512 512;" xml:space="preserve" width="512px" height="512px" class=""><g><g>
	<g>
		<path d="M356.577,20.47C244.17-27.11,114.517,10.696,45.89,109.82L23.99,93.4C14.28,86.06,0,92.97,0,105.4v150    c0,11.04,11.57,18.37,21.71,13.42l120-60c9.91-4.97,11.22-18.71,2.28-25.42l-25.6-19.21c48.82-74.16,140.467-87.34,203.137-60.84    c134.21,56.85,134.01,248.701-0.02,305.421c-85.863,36.352-183.214-4.356-218.557-87.82c-9.67-22.91-36.04-33.62-58.95-23.93    c-22.95,9.67-33.62,36.12-23.94,58.94c54.26,128.62,205.407,191.23,336.488,135.69C563.958,404.081,563.667,107.95,356.577,20.47z    " data-original="#000000" class="active-path" data-old_color="#000000" fill="#008A8D"/>
	</g>
</g></g> </svg>
